 <svg  version="1.0" xmlns="http://www.w3.org/2000/svg"  width="300.000000pt" height="300.000000pt" viewBox="0 0 300.000000 300.000000"  preserveAspectRatio="xMidYMid meet">  <g transform="translate(0.000000,300.000000) scale(0.100000,-0.100000)" fill="#284277" stroke="none"> <path d="M1473 2203 l-20 -58 -73 -3 -72 -3 56 -40 c31 -22 56 -44 56 -49 0 -5 -9 -32 -20 -60 -11 -28 -20 -55 -20 -60 0 -5 25 8 57 30 31 22 60 40 65 40 4 0 31 -16 58 -36 28 -20 53 -34 56 -31 3 2 -4 29 -16 58 -11 30 -20 57 -20 61 0 3 26 25 57 47 l57 40 -74 3 -73 3 -20 58 c-12 31 -24 57 -27 57 -3 0 -15 -26 -27 -57z"/> <path d="M783 1811 c-111 -41 -201 -129 -244 -238 -33 -83 -33 -233 0 -316 43 -111 146 -206 256 -240 22 -6 76 -12 121 -12 70 1 89 5 145 32 35 18 83 51 106 73 l42 42 43 -42 c167 -162 445 -137 570 50 17 24 17 23 17 -57 l1 -83 85 0 85 0 0 170 0 170 145 0 145 0 0 -170 0 -170 80 0 80 0 0 400 0 400 -80 0 -79 0 -3 -152 -3 -153 -142 -3 -143 -3 0 156 0 155 -85 0 -85 0 0 -82 0 -83 -45 52 c-31 35 -68 63 -113 85 -62 31 -74 33 -167 33 -91 0 -105 -3 -159 -30 -32 -16 -79 -49 -103 -72 l-44 -43 -45 45 c-71 69 -140 98 -243 102 -66 3 -98 -1 -138 -16z m218 -162 c47 -23 95 -86 110 -143 18 -66 7 -185 -22 -236 -85 -154 -287 -148 -374 10 -26 48 -30 65 -29 135 0 67 4 88 27 132 61 118 177 159 288 102z m573 20 c22 -6 60 -31 87 -56 l48 -45 58 36 c32 20 62 36 66 36 4 0 7 -97 7 -215 l0 -215 -62 31 -63 31 -51 -50 c-39 -37 -63 -52 -98 -60 -101 -21 -191 24 -241 123 -58 114 -32 269 60 342 58 47 121 61 189 42z"/> </g> </svg> 